<?xml version="1.0" encoding="UTF-8" standalone="no"?>
<!DOCTYPE svg PUBLIC "-//W3C//DTD SVG 1.1//EN"
 "http://www.w3.org/Graphics/SVG/1.1/DTD/svg11.dtd">
<!-- Generated by graphviz version 9.0.0 (20230911.1827)
 -->
<!-- Title: Projects Pages: 1 -->
<svg width="1050pt" height="116pt"
 viewBox="0.00 0.00 1049.73 116.00" xmlns="http://www.w3.org/2000/svg" xmlns:xlink="http://www.w3.org/1999/xlink">
<g id="graph0" class="graph" transform="scale(1 1) rotate(0) translate(4 112)">
<title>Projects</title>
<polygon fill="white" stroke="none" points="-4,4 -4,-112 1045.73,-112 1045.73,4 -4,4"/>
<!-- sample&#45;rest&#45;builder&#45;api -->
<g id="node1" class="node">
<title>sample&#45;rest&#45;builder&#45;api</title>
<ellipse fill="none" stroke="black" cx="372.05" cy="-18" rx="97.41" ry="18"/>
<text text-anchor="middle" x="372.05" y="-12.95" font-family="Times,serif" font-size="14.00">sample&#45;rest&#45;builder&#45;api</text>
</g>
<!-- sample&#45;rest&#45;builder&#45;client -->
<g id="node2" class="node">
<title>sample&#45;rest&#45;builder&#45;client</title>
<ellipse fill="none" stroke="black" cx="594.05" cy="-18" rx="106.63" ry="18"/>
<text text-anchor="middle" x="594.05" y="-12.95" font-family="Times,serif" font-size="14.00">sample&#45;rest&#45;builder&#45;client</text>
</g>
<!-- sample&#45;rest&#45;builder&#45;impl -->
<g id="node3" class="node">
<title>sample&#45;rest&#45;builder&#45;impl</title>
<ellipse fill="none" stroke="black" cx="372.05" cy="-90" rx="103.56" ry="18"/>
<text text-anchor="middle" x="372.05" y="-84.95" font-family="Times,serif" font-size="14.00">sample&#45;rest&#45;builder&#45;impl</text>
</g>
<!-- sample&#45;rest&#45;builder&#45;impl&#45;&gt;sample&#45;rest&#45;builder&#45;api -->
<g id="edge1" class="edge">
<title>sample&#45;rest&#45;builder&#45;impl&#45;&gt;sample&#45;rest&#45;builder&#45;api</title>
<path fill="none" stroke="black" d="M372.05,-71.7C372.05,-64.41 372.05,-55.73 372.05,-47.54"/>
<polygon fill="black" stroke="black" points="375.55,-47.62 372.05,-37.62 368.55,-47.62 375.55,-47.62"/>
</g>
<!-- sample&#45;service&#45;builder&#45;api -->
<g id="node4" class="node">
<title>sample&#45;service&#45;builder&#45;api</title>
<ellipse fill="none" stroke="black" cx="136.05" cy="-18" rx="110.21" ry="18"/>
<text text-anchor="middle" x="136.05" y="-12.95" font-family="Times,serif" font-size="14.00">sample&#45;service&#45;builder&#45;api</text>
</g>
<!-- sample&#45;rest&#45;builder&#45;impl&#45;&gt;sample&#45;service&#45;builder&#45;api -->
<g id="edge2" class="edge">
<title>sample&#45;rest&#45;builder&#45;impl&#45;&gt;sample&#45;service&#45;builder&#45;api</title>
<path fill="none" stroke="black" d="M321.13,-73.9C285.25,-63.25 236.96,-48.93 198.71,-37.58"/>
<polygon fill="black" stroke="black" points="199.73,-34.24 189.14,-34.75 197.74,-40.95 199.73,-34.24"/>
</g>
<!-- sample&#45;rest&#45;builder&#45;test -->
<g id="node5" class="node">
<title>sample&#45;rest&#45;builder&#45;test</title>
<ellipse fill="none" stroke="black" cx="594.05" cy="-90" rx="98.95" ry="18"/>
<text text-anchor="middle" x="594.05" y="-84.95" font-family="Times,serif" font-size="14.00">sample&#45;rest&#45;builder&#45;test</text>
</g>
<!-- sample&#45;rest&#45;builder&#45;test&#45;&gt;sample&#45;rest&#45;builder&#45;api -->
<g id="edge3" class="edge">
<title>sample&#45;rest&#45;builder&#45;test&#45;&gt;sample&#45;rest&#45;builder&#45;api</title>
<path fill="none" stroke="black" d="M546.15,-73.9C512.31,-63.23 466.74,-48.86 430.71,-37.5"/>
<polygon fill="black" stroke="black" points="431.9,-34.2 421.31,-34.53 429.79,-40.88 431.9,-34.2"/>
</g>
<!-- sample&#45;rest&#45;builder&#45;test&#45;&gt;sample&#45;rest&#45;builder&#45;client -->
<g id="edge4" class="edge">
<title>sample&#45;rest&#45;builder&#45;test&#45;&gt;sample&#45;rest&#45;builder&#45;client</title>
<path fill="none" stroke="black" d="M594.05,-71.7C594.05,-64.41 594.05,-55.73 594.05,-47.54"/>
<polygon fill="black" stroke="black" points="597.55,-47.62 594.05,-37.62 590.55,-47.62 597.55,-47.62"/>
</g>
<!-- sample&#45;service&#45;builder&#45;service -->
<g id="node6" class="node">
<title>sample&#45;service&#45;builder&#45;service</title>
<ellipse fill="none" stroke="black" cx="125.05" cy="-90" rx="125.05" ry="18"/>
<text text-anchor="middle" x="125.05" y="-84.95" font-family="Times,serif" font-size="14.00">sample&#45;service&#45;builder&#45;service</text>
</g>
<!-- sample&#45;service&#45;builder&#45;service&#45;&gt;sample&#45;service&#45;builder&#45;api -->
<g id="edge5" class="edge">
<title>sample&#45;service&#45;builder&#45;service&#45;&gt;sample&#45;service&#45;builder&#45;api</title>
<path fill="none" stroke="black" d="M127.77,-71.7C128.93,-64.32 130.31,-55.52 131.61,-47.25"/>
<polygon fill="black" stroke="black" points="135.03,-48.02 133.13,-37.6 128.12,-46.93 135.03,-48.02"/>
</g>
<!-- scheduler&#45;job&#45;sample -->
<g id="node7" class="node">
<title>scheduler&#45;job&#45;sample</title>
<ellipse fill="none" stroke="black" cx="802.05" cy="-90" rx="90.76" ry="18"/>
<text text-anchor="middle" x="802.05" y="-84.95" font-family="Times,serif" font-size="14.00">scheduler&#45;job&#45;sample</text>
</g>
<!-- sso&#45;integration -->
<g id="node8" class="node">
<title>sso&#45;integration</title>
<ellipse fill="none" stroke="black" cx="976.05" cy="-90" rx="65.68" ry="18"/>
<text text-anchor="middle" x="976.05" y="-84.95" font-family="Times,serif" font-size="14.00">sso&#45;integration</text>
</g>
</g>
</svg>
