<?xml version="1.0" encoding="UTF-8" standalone="no"?>
<!DOCTYPE svg PUBLIC "-//W3C//DTD SVG 1.1//EN"
 "http://www.w3.org/Graphics/SVG/1.1/DTD/svg11.dtd">
<!-- Generated by graphviz version 9.0.0 (20230911.1827)
 -->
<!-- Title: Projects Pages: 1 -->
<svg width="1493pt" height="116pt"
 viewBox="0.00 0.00 1492.94 116.00" xmlns="http://www.w3.org/2000/svg" xmlns:xlink="http://www.w3.org/1999/xlink">
<g id="graph0" class="graph" transform="scale(1 1) rotate(0) translate(4 112)">
<title>Projects</title>
<polygon fill="white" stroke="none" points="-4,4 -4,-112 1488.94,-112 1488.94,4 -4,4"/>
<!-- panel&#45;app -->
<g id="node1" class="node">
<title>panel&#45;app</title>
<ellipse fill="none" stroke="black" cx="47.26" cy="-90" rx="47.26" ry="18"/>
<text text-anchor="middle" x="47.26" y="-84.95" font-family="Times,serif" font-size="14.00">panel&#45;app</text>
</g>
<!-- sample&#45;mvc&#45;portlet -->
<g id="node2" class="node">
<title>sample&#45;mvc&#45;portlet</title>
<ellipse fill="none" stroke="black" cx="196.26" cy="-90" rx="84.11" ry="18"/>
<text text-anchor="middle" x="196.26" y="-84.95" font-family="Times,serif" font-size="14.00">sample&#45;mvc&#45;portlet</text>
</g>
<!-- sample&#45;service&#45;builder&#45;api -->
<g id="node3" class="node">
<title>sample&#45;service&#45;builder&#45;api</title>
<ellipse fill="none" stroke="black" cx="423.26" cy="-18" rx="110.21" ry="18"/>
<text text-anchor="middle" x="423.26" y="-12.95" font-family="Times,serif" font-size="14.00">sample&#45;service&#45;builder&#45;api</text>
</g>
<!-- sample&#45;mvc&#45;portlet&#45;&gt;sample&#45;service&#45;builder&#45;api -->
<g id="edge1" class="edge">
<title>sample&#45;mvc&#45;portlet&#45;&gt;sample&#45;service&#45;builder&#45;api</title>
<path fill="none" stroke="black" d="M242.74,-74.67C277.33,-64 324.86,-49.34 362.47,-37.75"/>
<polygon fill="black" stroke="black" points="363.32,-41.15 371.84,-34.85 361.26,-34.46 363.32,-41.15"/>
</g>
<!-- sample&#45;rest&#45;builder&#45;api -->
<g id="node4" class="node">
<title>sample&#45;rest&#45;builder&#45;api</title>
<ellipse fill="none" stroke="black" cx="670.26" cy="-18" rx="97.41" ry="18"/>
<text text-anchor="middle" x="670.26" y="-12.95" font-family="Times,serif" font-size="14.00">sample&#45;rest&#45;builder&#45;api</text>
</g>
<!-- sample&#45;rest&#45;builder&#45;client -->
<g id="node5" class="node">
<title>sample&#45;rest&#45;builder&#45;client</title>
<ellipse fill="none" stroke="black" cx="892.26" cy="-18" rx="106.63" ry="18"/>
<text text-anchor="middle" x="892.26" y="-12.95" font-family="Times,serif" font-size="14.00">sample&#45;rest&#45;builder&#45;client</text>
</g>
<!-- sample&#45;rest&#45;builder&#45;impl -->
<g id="node6" class="node">
<title>sample&#45;rest&#45;builder&#45;impl</title>
<ellipse fill="none" stroke="black" cx="670.26" cy="-90" rx="103.56" ry="18"/>
<text text-anchor="middle" x="670.26" y="-84.95" font-family="Times,serif" font-size="14.00">sample&#45;rest&#45;builder&#45;impl</text>
</g>
<!-- sample&#45;rest&#45;builder&#45;impl&#45;&gt;sample&#45;service&#45;builder&#45;api -->
<g id="edge3" class="edge">
<title>sample&#45;rest&#45;builder&#45;impl&#45;&gt;sample&#45;service&#45;builder&#45;api</title>
<path fill="none" stroke="black" d="M617.57,-74.07C579.55,-63.29 527.99,-48.68 487.54,-37.22"/>
<polygon fill="black" stroke="black" points="488.74,-33.92 478.17,-34.56 486.84,-40.66 488.74,-33.92"/>
</g>
<!-- sample&#45;rest&#45;builder&#45;impl&#45;&gt;sample&#45;rest&#45;builder&#45;api -->
<g id="edge2" class="edge">
<title>sample&#45;rest&#45;builder&#45;impl&#45;&gt;sample&#45;rest&#45;builder&#45;api</title>
<path fill="none" stroke="black" d="M670.26,-71.7C670.26,-64.41 670.26,-55.73 670.26,-47.54"/>
<polygon fill="black" stroke="black" points="673.76,-47.62 670.26,-37.62 666.76,-47.62 673.76,-47.62"/>
</g>
<!-- sample&#45;rest&#45;builder&#45;test -->
<g id="node7" class="node">
<title>sample&#45;rest&#45;builder&#45;test</title>
<ellipse fill="none" stroke="black" cx="892.26" cy="-90" rx="98.95" ry="18"/>
<text text-anchor="middle" x="892.26" y="-84.95" font-family="Times,serif" font-size="14.00">sample&#45;rest&#45;builder&#45;test</text>
</g>
<!-- sample&#45;rest&#45;builder&#45;test&#45;&gt;sample&#45;rest&#45;builder&#45;api -->
<g id="edge4" class="edge">
<title>sample&#45;rest&#45;builder&#45;test&#45;&gt;sample&#45;rest&#45;builder&#45;api</title>
<path fill="none" stroke="black" d="M844.36,-73.9C810.51,-63.23 764.95,-48.86 728.92,-37.5"/>
<polygon fill="black" stroke="black" points="730.1,-34.2 719.51,-34.53 728,-40.88 730.1,-34.2"/>
</g>
<!-- sample&#45;rest&#45;builder&#45;test&#45;&gt;sample&#45;rest&#45;builder&#45;client -->
<g id="edge5" class="edge">
<title>sample&#45;rest&#45;builder&#45;test&#45;&gt;sample&#45;rest&#45;builder&#45;client</title>
<path fill="none" stroke="black" d="M892.26,-71.7C892.26,-64.41 892.26,-55.73 892.26,-47.54"/>
<polygon fill="black" stroke="black" points="895.76,-47.62 892.26,-37.62 888.76,-47.62 895.76,-47.62"/>
</g>
<!-- sample&#45;service&#45;builder&#45;service -->
<g id="node8" class="node">
<title>sample&#45;service&#45;builder&#45;service</title>
<ellipse fill="none" stroke="black" cx="423.26" cy="-90" rx="125.05" ry="18"/>
<text text-anchor="middle" x="423.26" y="-84.95" font-family="Times,serif" font-size="14.00">sample&#45;service&#45;builder&#45;service</text>
</g>
<!-- sample&#45;service&#45;builder&#45;service&#45;&gt;sample&#45;service&#45;builder&#45;api -->
<g id="edge6" class="edge">
<title>sample&#45;service&#45;builder&#45;service&#45;&gt;sample&#45;service&#45;builder&#45;api</title>
<path fill="none" stroke="black" d="M423.26,-71.7C423.26,-64.41 423.26,-55.73 423.26,-47.54"/>
<polygon fill="black" stroke="black" points="426.76,-47.62 423.26,-37.62 419.76,-47.62 426.76,-47.62"/>
</g>
<!-- sample&#45;theme -->
<g id="node9" class="node">
<title>sample&#45;theme</title>
<ellipse fill="none" stroke="black" cx="1073.26" cy="-90" rx="63.63" ry="18"/>
<text text-anchor="middle" x="1073.26" y="-84.95" font-family="Times,serif" font-size="14.00">sample&#45;theme</text>
</g>
<!-- scheduler&#45;job&#45;sample -->
<g id="node10" class="node">
<title>scheduler&#45;job&#45;sample</title>
<ellipse fill="none" stroke="black" cx="1245.26" cy="-90" rx="90.76" ry="18"/>
<text text-anchor="middle" x="1245.26" y="-84.95" font-family="Times,serif" font-size="14.00">scheduler&#45;job&#45;sample</text>
</g>
<!-- sso&#45;integration -->
<g id="node11" class="node">
<title>sso&#45;integration</title>
<ellipse fill="none" stroke="black" cx="1419.26" cy="-90" rx="65.68" ry="18"/>
<text text-anchor="middle" x="1419.26" y="-84.95" font-family="Times,serif" font-size="14.00">sso&#45;integration</text>
</g>
</g>
</svg>
